# xmcd
#
# Track frame offsets: 
#        150
#        17552
#        29630
#        48156
#        68692
#        83529
#        97000
#        111989
#        133195
#        152307
#        169467
#        185189
#        198458
#        217689
#        233215
#        242522
#
# Disc length: 3369 seconds
#
# Revision: 0
# Processed by: cddbd v1.5.2PL0 Copyright (c) Steve Scherf et al.
# Submitted via: ExactAudioCopy v1.3
#
DISCID=d40d2710
DTITLE=Fesaci - 50 let [CD3)
DYEAR=2017
DGENRE=Country
TTITLE0=Prima linka - Key West
TTITLE1=Motohymna
TTITLE2=Chci byt za vodou
TTITLE3=Osudnej den
TTITLE4=Hotel
TTITLE5=Za tim pristim kopcem
TTITLE6=Nezarlim
TTITLE7=Nejsem chlap ideal
TTITLE8=Tak to byt ma
TTITLE9=Pohoda
TTITLE10=Pristav
TTITLE11=Posledni valcik
TTITLE12=Fesacka pisen 2017
TTITLE13=Jaro
TTITLE14=Matterhorn
TTITLE15=Tak jako driv
EXTD=
EXTT0=
EXTT1=
EXTT2=
EXTT3=
EXTT4=
EXTT5=
EXTT6=
EXTT7=
EXTT8=
EXTT9=
EXTT10=
EXTT11=
EXTT12=
EXTT13=
EXTT14=
EXTT15=
PLAYORDER=
